<?xml version="1.0" encoding="UTF-8"?>
<svg width="64px" height="24px" viewBox="0 0 64 24" version="1.1" xmlns="http://www.w3.org/2000/svg" xmlns:xlink="http://www.w3.org/1999/xlink">
    <!-- Generator: Sketch 52.5 (67469) - http://www.bohemiancoding.com/sketch -->
    <title>logo</title>
    <desc>Created with Sketch.</desc>
    <g id="Website" stroke="none" stroke-width="1" fill="none" fill-rule="evenodd">
        <g id="Home" transform="translate(-31.000000, -28.000000)" fill="#01A9ED">
            <path d="M51.584,31.884 C51.836,32.64 51.476,33.144 50.612,33.756 C45.68,37.356 38.948,43.728 34.772,48.588 C36.464,48.192 38.66,47.76 40.208,47.616 C42.08,47.472 43.232,48.192 43.736,49.272 C43.916,49.74 43.808,50.064 43.016,50.064 C40.856,50.064 37.256,50.856 34.268,51.684 C33.224,51.972 32.72,51.504 31.676,49.632 C31.316,48.948 31.316,48.408 31.892,47.544 C34.592,43.512 42.764,35.664 48.092,31.704 C46.652,31.956 44.78,32.424 43.592,32.568 C41,32.856 39.884,31.884 39.452,30.624 C39.272,30.12 39.308,29.796 39.992,29.796 C43.304,29.868 47.012,28.788 48.596,28.788 C49.352,28.788 50,28.968 50.396,29.508 C50.864,30.156 51.296,31.056 51.584,31.884 Z M46.652,42.468 C49.532,38.328 52.484,36.636 54.32,36.636 C55.616,36.636 56.408,37.284 56.732,38.22 L57.416,37.104 C57.848,36.384 58.46,36.348 58.892,36.852 C59.504,37.572 59.828,39.156 58.892,41.028 C57.956,43.008 54.932,46.932 54.932,49.344 C54.932,49.884 55.076,50.208 55.436,50.208 C56.732,50.208 58.532,47.76 59.72,45.42 C60.116,44.7 60.44,44.664 60.8,45.42 C60.944,45.744 61.16,46.716 60.656,47.76 C59.72,49.74 57.416,51.648 55.22,51.648 C53.42,51.648 52.376,50.712 52.088,49.38 C51.044,50.388 49.424,51.504 47.984,51.504 C45.86,51.504 44.708,49.956 44.708,47.832 C44.708,46.284 45.356,44.268 46.652,42.468 Z M48.452,49.92 C49.64,49.92 51.296,47.724 53.06,44.7 C54.464,42.252 55.112,40.488 55.112,39.552 C55.112,39.12 55.04,38.868 54.68,38.868 C53.96,38.868 51.476,41.136 49.64,44.088 C48.56,45.78 47.948,47.688 47.948,48.84 C47.948,49.488 48.092,49.92 48.452,49.92 Z M65.328,41.28 C64.428,44.844 64.068,46.284 63.744,48.192 C66.336,44.196 70.26,39.048 72.384,36.852 C73.176,36.096 73.608,36.24 73.716,37.104 C73.824,37.896 73.428,38.868 72.204,40.344 C68.928,44.268 66.48,47.148 63.888,51.252 C63.636,51.648 63.24,51.936 62.7,51.684 C61.224,51 60.612,50.172 60.72,48.264 C60.864,45.78 61.8,40.776 63.06,37.032 C63.276,36.384 63.78,36.204 64.356,36.672 C65.184,37.392 65.58,38.256 65.58,39.336 C65.58,39.912 65.508,40.56 65.328,41.28 Z M76.128,41.28 C75.228,44.844 74.868,46.284 74.544,48.192 C77.136,44.196 81.06,39.048 83.184,36.852 C83.976,36.096 84.408,36.24 84.516,37.104 C84.624,37.896 84.228,38.868 83.004,40.344 C79.728,44.268 77.28,47.148 74.688,51.252 C74.436,51.648 74.04,51.936 73.5,51.684 C72.024,51 71.412,50.172 71.52,48.264 C71.664,45.78 72.6,40.776 73.86,37.032 C74.076,36.384 74.58,36.204 75.156,36.672 C75.984,37.392 76.38,38.256 76.38,39.336 C76.38,39.912 76.308,40.56 76.128,41.28 Z M94.452,43.368 C94.2,43.656 93.912,43.8 93.516,43.872 C92.76,46.86 90.456,50.388 87.72,51.324 C87.396,51.432 86.964,51.54 86.424,51.54 C85.236,51.54 83.904,51.036 82.896,49.704 C82.212,48.804 81.888,47.724 81.888,46.572 C81.888,44.988 82.464,43.224 83.4,41.532 C85.02,38.652 87.288,36.852 89.664,36.852 C90.708,36.852 91.356,37.248 92.04,38.184 C93.048,39.372 94.056,39.624 93.732,42.684 C94.668,42.684 94.74,43.008 94.452,43.368 Z M90.032,41.964 C90.392,41.136 90.536,40.272 90.536,39.804 C90.536,39.264 90.248,39.048 89.996,39.048 C89.78,39.048 89.456,39.336 89.456,39.912 C89.456,40.56 89.636,41.496 90.032,41.964 Z M83.696,48.192 C83.696,49.272 84.02,49.704 84.56,49.704 C85.496,49.704 86.936,48.372 88.268,45.924 C88.808,44.988 89.24,44.088 89.456,43.332 C88.304,42.612 87.548,41.676 87.26,40.416 C86.504,41.136 85.82,42.036 85.208,43.116 C84.272,44.844 83.696,46.86 83.696,48.192 Z" id="logo"></path>
        </g>
    </g>
</svg>